<?xml version="1.0" encoding="UTF-8"?>
<svg id="Ebene_1" xmlns="http://www.w3.org/2000/svg" version="1.1" viewBox="0 0 250 250">
  <!-- Generator: Adobe Illustrator 30.2.1, SVG Export Plug-In . SVG Version: 2.1.1 Build 1)  -->
  <defs>
    <style>
      .st0 {
        fill: none;
        stroke: #fff;
        stroke-linecap: round;
        stroke-linejoin: round;
        stroke-width: 7px;
      }
    </style>
  </defs>
  <path class="st0" d="M230.9,114.4c5.8-2.6,8.5-9.4,5.9-15.2-1.2-2.7-3.4-4.8-6.1-6l-98.7-45c-6.1-2.8-13.1-2.8-19.1,0L14.1,93.2c-5.8,2.6-8.5,9.3-5.9,15.2,1.2,2.7,3.3,4.8,5.9,5.9l98.7,45c6.1,2.8,13.1,2.8,19.1,0l99-44.9h0Z"/>
  <path class="st0" d="M237.6,103.7v69.1"/>
  <path class="st0" d="M53.3,132.6v40.3c0,19.1,31,34.6,69.1,34.6s69.1-15.5,69.1-34.6v-40.3"/>
</svg>